<svg xmlns="http://www.w3.org/2000/svg" width="600" height="600" fill="none" viewBox="0 0 600 600">
  <rect fill="#000" width="600" height="600" rx="135" ry="135"/>
  <path fill="#fff" d="m253.365 278.534-105.228 85.084.803-.649 31.003-151.349L80 245.35l115.639-67.014-30.923 151.488 88.649-51.29ZM374.429 75c2.87 14.76 3.826 29.231 2.867 43.411-.431 6.058-1.275 12.391-2.532 18.998-1.234 6.523-3.162 13.017-5.784 19.482-2.569 6.434-5.924 12.678-10.067 18.732-4.142 6.054-9.242 11.622-15.299 16.704l12.735 51.255-37.926-36.68c-7.421 2.716-14.783 4.358-22.086 4.926-7.303.568-14.403.374-21.302-.583-6.844-.988-13.42-2.562-19.727-4.721-6.285-2.244-12.153-4.693-17.604-7.348-12.734-6.258-24.761-14.322-36.082-24.194 10.183 8.02 43.94 11.903 55.519 5.203 4.582 2.011 9.453 3.782 14.614 5.313a80.603 80.603 0 0 0 16.002 2.897 69.823 69.823 0 0 0 16.474-.926c5.561-.994 11.019-2.969 16.376-5.925 5.233-3.171 9.669-6.921 13.308-11.25 3.639-4.328 6.652-8.94 9.038-13.834a77.482 77.482 0 0 0 5.417-15.29c1.311-5.276 2.243-10.404 2.796-15.385 10.777-6.236 23.658-37.102 21.819-49.95l1.444-.835Zm18.335 198.399c7.488-4.332 15.195-7.788 23.123-10.366 7.95-2.664 15.828-4.461 23.635-5.393 7.807-.931 15.404-.988 22.792-.171 7.357.763 14.24 2.374 20.649 4.833 6.431 2.375 12.223 5.621 17.377 9.738 5.122 4.064 9.325 8.947 12.61 14.648a51.877 51.877 0 0 1 6.399 18.348c.951 6.478.86 13.128-.273 19.95-1.11 6.738-3.159 13.517-6.147 20.337-3.019 6.766-6.882 13.304-11.591 19.614-4.708 6.31-10.2 12.248-16.477 17.816-6.193 5.591-13.033 10.552-20.52 14.884-7.488 4.333-15.222 7.804-23.203 10.413-7.897 2.633-15.749 4.415-23.555 5.346-7.807.932-15.416 1.031-22.826.299-7.388-.817-14.271-2.428-20.649-4.834-6.408-2.459-12.174-5.72-17.296-9.784a51.768 51.768 0 0 1-12.657-14.728 51.155 51.155 0 0 1-6.353-18.268c-.982-6.531-.918-13.166.192-19.904 1.08-6.791 3.129-13.57 6.148-20.336 3.041-6.852 6.916-13.432 11.624-19.742 4.709-6.309 10.174-12.232 16.398-17.769 6.245-5.622 13.112-10.599 20.6-14.931Zm-25.745 97.721c2.727 4.733 6.039 8.625 9.936 11.677a41.94 41.94 0 0 0 12.841 6.877c4.716 1.502 9.681 2.322 14.895 2.461 5.268.107 10.64-.347 16.116-1.364 5.444-1.071 10.913-2.657 16.405-4.759a118.843 118.843 0 0 0 15.894-7.69 118.969 118.969 0 0 0 14.592-9.949c4.563-3.715 8.668-7.668 12.315-11.858 3.67-4.275 6.749-8.709 9.237-13.304 2.509-4.679 4.268-9.425 5.274-14.238a41.507 41.507 0 0 0 .604-14.548c-.688-4.909-2.396-9.729-5.123-14.462-2.757-4.787-6.069-8.679-9.936-11.677a40.976 40.976 0 0 0-12.921-6.831c-4.662-1.533-9.628-2.353-14.895-2.46-5.215-.139-10.571.343-16.069 1.444-5.476 1.017-10.944 2.603-16.405 4.759a111.045 111.045 0 0 0-15.94 7.609 111.045 111.045 0 0 0-14.546 10.03c-4.594 3.661-8.699 7.614-12.316 11.858-3.647 4.19-6.726 8.624-9.236 13.304-2.487 4.594-4.261 9.313-5.321 14.158a42.1 42.1 0 0 0-.477 14.582c.657 4.854 2.349 9.648 5.076 14.381Zm-35.181 51.735c-2.186 6.828-5.839 13.149-10.958 18.964-5.096 5.73-11.461 10.803-19.093 15.219-5.925 3.428-11.635 6.054-17.131 7.879-5.527 1.771-10.816 2.906-15.866 3.403-5.051.498-9.829.481-14.334-.051-4.536-.585-8.786-1.478-12.752-2.678L275.355 524l-89.667-105.055 31.055 3.321 2.86 3.48a96.338 96.338 0 0 0 4.378 4.635 113.522 113.522 0 0 0 5.767 5.007 67.93 67.93 0 0 0 7.119 4.76c17.053 9.96 35.134 9.412 54.242-1.644 5.338-3.088 9.729-6.52 13.176-10.297 3.446-3.777 5.87-7.783 7.273-12.018 1.125-3.36 1.519-6.691 1.183-9.991a23.041 23.041 0 0 0-3.012-9.49c-1.51-2.621-3.538-4.906-6.085-6.856-2.493-1.981-5.42-3.354-8.779-4.121-3.337-.85-7.041-.918-11.112-.203-4.049.631-8.342 2.259-12.879 4.884-7.632 4.416-13.483 9.762-17.553 16.04-4.1 6.223-6.544 13.592-7.332 22.107 1.109-11.91 2.128-27.065-10.63-33.645 5.99-9.243 14.27-16.921 24.838-23.036 6.671-3.86 13.368-6.379 20.09-7.559 6.776-1.21 13.401-1.013 19.875.59 6 1.52 11.401 4.101 16.203 7.741 4.824 3.556 8.777 8.009 11.858 13.358 3.267 5.669 5.212 11.64 5.836 17.911.624 6.272-.116 12.584-2.221 18.936Z"/>
</svg>
